<svg id="visual" viewBox="0 0 960 100" width="960" height="100" xmlns="http://www.w3.org/2000/svg" xmlns:xlink="http://www.w3.org/1999/xlink" version="1.1"><rect x="0" y="0" width="960" height="100" fill="#202731"></rect><path d="M0 16L22.8 18C45.7 20 91.3 24 137 27.7C182.7 31.3 228.3 34.7 274 32.8C319.7 31 365.3 24 411.2 21C457 18 503 19 548.8 19.8C594.7 20.7 640.3 21.3 686 25.8C731.7 30.3 777.3 38.7 823 40.3C868.7 42 914.3 37 937.2 34.5L960 32L960 101L937.2 101C914.3 101 868.7 101 823 101C777.3 101 731.7 101 686 101C640.3 101 594.7 101 548.8 101C503 101 457 101 411.2 101C365.3 101 319.7 101 274 101C228.3 101 182.7 101 137 101C91.3 101 45.7 101 22.8 101L0 101Z" fill="#ff6f61"></path><path d="M0 37L22.8 40C45.7 43 91.3 49 137 48.7C182.7 48.3 228.3 41.7 274 40.3C319.7 39 365.3 43 411.2 46.5C457 50 503 53 548.8 54C594.7 55 640.3 54 686 50.2C731.7 46.3 777.3 39.7 823 36.2C868.7 32.7 914.3 32.3 937.2 32.2L960 32L960 101L937.2 101C914.3 101 868.7 101 823 101C777.3 101 731.7 101 686 101C640.3 101 594.7 101 548.8 101C503 101 457 101 411.2 101C365.3 101 319.7 101 274 101C228.3 101 182.7 101 137 101C91.3 101 45.7 101 22.8 101L0 101Z" fill="#f76455"></path><path d="M0 53L22.8 53.3C45.7 53.7 91.3 54.3 137 55.2C182.7 56 228.3 57 274 59.2C319.7 61.3 365.3 64.7 411.2 66.3C457 68 503 68 548.8 66.3C594.7 64.7 640.3 61.3 686 61.5C731.7 61.7 777.3 65.3 823 64.2C868.7 63 914.3 57 937.2 54L960 51L960 101L937.2 101C914.3 101 868.7 101 823 101C777.3 101 731.7 101 686 101C640.3 101 594.7 101 548.8 101C503 101 457 101 411.2 101C365.3 101 319.7 101 274 101C228.3 101 182.7 101 137 101C91.3 101 45.7 101 22.8 101L0 101Z" fill="#ee5849"></path><path d="M0 68L22.8 69.3C45.7 70.7 91.3 73.3 137 74.3C182.7 75.3 228.3 74.7 274 72.2C319.7 69.7 365.3 65.3 411.2 64.5C457 63.7 503 66.3 548.8 68.3C594.7 70.3 640.3 71.7 686 73C731.7 74.3 777.3 75.7 823 73.7C868.7 71.7 914.3 66.3 937.2 63.7L960 61L960 101L937.2 101C914.3 101 868.7 101 823 101C777.3 101 731.7 101 686 101C640.3 101 594.7 101 548.8 101C503 101 457 101 411.2 101C365.3 101 319.7 101 274 101C228.3 101 182.7 101 137 101C91.3 101 45.7 101 22.8 101L0 101Z" fill="#e64c3d"></path><path d="M0 80L22.8 80.5C45.7 81 91.3 82 137 83C182.7 84 228.3 85 274 86.2C319.7 87.3 365.3 88.7 411.2 88C457 87.3 503 84.7 548.8 84C594.7 83.3 640.3 84.7 686 84.7C731.7 84.7 777.3 83.3 823 83C868.7 82.7 914.3 83.3 937.2 83.7L960 84L960 101L937.2 101C914.3 101 868.7 101 823 101C777.3 101 731.7 101 686 101C640.3 101 594.7 101 548.8 101C503 101 457 101 411.2 101C365.3 101 319.7 101 274 101C228.3 101 182.7 101 137 101C91.3 101 45.7 101 22.8 101L0 101Z" fill="#dd3f31"></path></svg>