<svg id="visual" viewBox="0 0 960 100" width="960" height="100" xmlns="http://www.w3.org/2000/svg" xmlns:xlink="http://www.w3.org/1999/xlink" version="1.1"><rect x="0" y="0" width="960" height="100" fill="#202731"></rect><path d="M0 38L107 38L107 23L213 23L213 35L320 35L320 20L427 20L427 34L533 34L533 41L640 41L640 18L747 18L747 20L853 20L853 29L960 29L960 27L960 101L960 101L853 101L853 101L747 101L747 101L640 101L640 101L533 101L533 101L427 101L427 101L320 101L320 101L213 101L213 101L107 101L107 101L0 101Z" fill="#a52af6"></path><path d="M0 34L107 34L107 49L213 49L213 41L320 41L320 51L427 51L427 33L533 33L533 41L640 41L640 46L747 46L747 54L853 54L853 54L960 54L960 54L960 101L960 101L853 101L853 101L747 101L747 101L640 101L640 101L533 101L533 101L427 101L427 101L320 101L320 101L213 101L213 101L107 101L107 101L0 101Z" fill="#891dd3"></path><path d="M0 55L107 55L107 72L213 72L213 61L320 61L320 66L427 66L427 60L533 60L533 55L640 55L640 73L747 73L747 55L853 55L853 57L960 57L960 70L960 101L960 101L853 101L853 101L747 101L747 101L640 101L640 101L533 101L533 101L427 101L427 101L320 101L320 101L213 101L213 101L107 101L107 101L0 101Z" fill="#6f0fb1"></path><path d="M0 85L107 85L107 75L213 75L213 71L320 71L320 83L427 83L427 81L533 81L533 83L640 83L640 83L747 83L747 70L853 70L853 78L960 78L960 81L960 101L960 101L853 101L853 101L747 101L747 101L640 101L640 101L533 101L533 101L427 101L427 101L320 101L320 101L213 101L213 101L107 101L107 101L0 101Z" fill="#560090"></path></svg>