<svg id="visual" viewBox="0 0 960 150" width="960" height="150" xmlns="http://www.w3.org/2000/svg" xmlns:xlink="http://www.w3.org/1999/xlink" version="1.1"><rect x="0" y="0" width="960" height="150" fill="#202731"></rect><path d="M0 66L137 36L274 40L411 34L549 47L686 58L823 63L960 70L960 151L823 151L686 151L549 151L411 151L274 151L137 151L0 151Z" fill="#4facf7"></path><path d="M0 49L137 79L274 69L411 80L549 66L686 73L823 57L960 84L960 151L823 151L686 151L549 151L411 151L274 151L137 151L0 151Z" fill="#1babe4"></path><path d="M0 83L137 66L274 84L411 93L549 65L686 85L823 77L960 65L960 151L823 151L686 151L549 151L411 151L274 151L137 151L0 151Z" fill="#00a8cd"></path><path d="M0 82L137 97L274 100L411 90L549 88L686 103L823 83L960 108L960 151L823 151L686 151L549 151L411 151L274 151L137 151L0 151Z" fill="#00a3b4"></path><path d="M0 99L137 107L274 114L411 123L549 105L686 103L823 116L960 119L960 151L823 151L686 151L549 151L411 151L274 151L137 151L0 151Z" fill="#009d96"></path><path d="M0 138L137 125L274 118L411 132L549 133L686 118L823 129L960 138L960 151L823 151L686 151L549 151L411 151L274 151L137 151L0 151Z" fill="#009473"></path></svg>