<svg id="visual" viewBox="0 0 960 100" width="960" height="100" xmlns="http://www.w3.org/2000/svg" xmlns:xlink="http://www.w3.org/1999/xlink" version="1.1"><rect x="0" y="0" width="960" height="100" fill="#202731"></rect><path d="M0 27L22.8 25.7C45.7 24.3 91.3 21.7 137 21.7C182.7 21.7 228.3 24.3 274 27C319.7 29.7 365.3 32.3 411.2 30.7C457 29 503 23 548.8 21.7C594.7 20.3 640.3 23.7 686 27C731.7 30.3 777.3 33.7 823 34C868.7 34.3 914.3 31.7 937.2 30.3L960 29L960 101L937.2 101C914.3 101 868.7 101 823 101C777.3 101 731.7 101 686 101C640.3 101 594.7 101 548.8 101C503 101 457 101 411.2 101C365.3 101 319.7 101 274 101C228.3 101 182.7 101 137 101C91.3 101 45.7 101 22.8 101L0 101Z" fill="#fa7268"></path><path d="M0 50L22.8 49.3C45.7 48.7 91.3 47.3 137 44.5C182.7 41.7 228.3 37.3 274 39.5C319.7 41.7 365.3 50.3 411.2 51.3C457 52.3 503 45.7 548.8 44.7C594.7 43.7 640.3 48.3 686 48.5C731.7 48.7 777.3 44.3 823 41.8C868.7 39.3 914.3 38.7 937.2 38.3L960 38L960 101L937.2 101C914.3 101 868.7 101 823 101C777.3 101 731.7 101 686 101C640.3 101 594.7 101 548.8 101C503 101 457 101 411.2 101C365.3 101 319.7 101 274 101C228.3 101 182.7 101 137 101C91.3 101 45.7 101 22.8 101L0 101Z" fill="#ef5f67"></path><path d="M0 68L22.8 64.8C45.7 61.7 91.3 55.3 137 54C182.7 52.7 228.3 56.3 274 57.2C319.7 58 365.3 56 411.2 56.8C457 57.7 503 61.3 548.8 63.2C594.7 65 640.3 65 686 62C731.7 59 777.3 53 823 52.7C868.7 52.3 914.3 57.7 937.2 60.3L960 63L960 101L937.2 101C914.3 101 868.7 101 823 101C777.3 101 731.7 101 686 101C640.3 101 594.7 101 548.8 101C503 101 457 101 411.2 101C365.3 101 319.7 101 274 101C228.3 101 182.7 101 137 101C91.3 101 45.7 101 22.8 101L0 101Z" fill="#e34c67"></path><path d="M0 79L22.8 76.7C45.7 74.3 91.3 69.7 137 67.3C182.7 65 228.3 65 274 67C319.7 69 365.3 73 411.2 73.5C457 74 503 71 548.8 69.7C594.7 68.3 640.3 68.7 686 69.7C731.7 70.7 777.3 72.3 823 70.7C868.7 69 914.3 64 937.2 61.5L960 59L960 101L937.2 101C914.3 101 868.7 101 823 101C777.3 101 731.7 101 686 101C640.3 101 594.7 101 548.8 101C503 101 457 101 411.2 101C365.3 101 319.7 101 274 101C228.3 101 182.7 101 137 101C91.3 101 45.7 101 22.8 101L0 101Z" fill="#d53867"></path><path d="M0 86L22.8 84.2C45.7 82.3 91.3 78.7 137 78.2C182.7 77.7 228.3 80.3 274 82.2C319.7 84 365.3 85 411.2 84.8C457 84.7 503 83.3 548.8 83.3C594.7 83.3 640.3 84.7 686 84.7C731.7 84.7 777.3 83.3 823 83.3C868.7 83.3 914.3 84.7 937.2 85.3L960 86L960 101L937.2 101C914.3 101 868.7 101 823 101C777.3 101 731.7 101 686 101C640.3 101 594.7 101 548.8 101C503 101 457 101 411.2 101C365.3 101 319.7 101 274 101C228.3 101 182.7 101 137 101C91.3 101 45.7 101 22.8 101L0 101Z" fill="#c62368"></path></svg>