<svg id="visual" viewBox="0 0 960 100" width="960" height="100" xmlns="http://www.w3.org/2000/svg" xmlns:xlink="http://www.w3.org/1999/xlink" version="1.1"><path d="M0 26L87 45L175 20L262 42L349 24L436 23L524 34L611 18L698 32L785 47L873 32L960 28L960 0L873 0L785 0L698 0L611 0L524 0L436 0L349 0L262 0L175 0L87 0L0 0Z" fill="#202731"></path><path d="M0 34L87 57L175 35L262 48L349 30L436 36L524 47L611 35L698 38L785 59L873 48L960 34L960 26L873 30L785 45L698 30L611 16L524 32L436 21L349 22L262 40L175 18L87 43L0 24Z" fill="#1f3c4c"></path><path d="M0 60L87 72L175 59L262 66L349 54L436 72L524 69L611 69L698 56L785 75L873 77L960 61L960 32L873 46L785 57L698 36L611 33L524 45L436 34L349 28L262 46L175 33L87 55L0 32Z" fill="#0a5362"></path><path d="M0 82L87 81L175 77L262 82L349 76L436 85L524 88L611 83L698 76L785 89L873 90L960 81L960 59L873 75L785 73L698 54L611 67L524 67L436 70L349 52L262 64L175 57L87 70L0 58Z" fill="#006b70"></path><path d="M0 101L87 101L175 101L262 101L349 101L436 101L524 101L611 101L698 101L785 101L873 101L960 101L960 79L873 88L785 87L698 74L611 81L524 86L436 83L349 74L262 80L175 75L87 79L0 80Z" fill="#038373"></path></svg>